# Blender v2.76 (sub 0) OBJ File: ''
# www.blender.org
mtllib skybox.mtl
o Cube
v 4.999998 -5.000000 -4.999997
v 4.999998 -5.000000 4.999998
v -4.999998 -5.000000 4.999997
v -4.999996 -5.000000 -5.000000
v 5.000000 5.000000 -4.999995
v 4.999994 5.000000 5.000000
v -5.000000 5.000000 4.999996
v -4.999997 5.000000 -4.999998
vt 0.000001 3.000000
vt -1.000000 3.000000
vt 0.250000 0.996094
vt 0.250000 0.753906
vt 0.238281 0.238281
vt 0.753906 0.246093
vt 0.746094 0.746094
vt 0.996093 0.242187
vt 0.240157 -0.001673
vt -0.000000 0.238282
vt 0.746095 0.996094
vt 0.996094 0.742187
vt 0.756495 0.004527
vt -0.000000 0.746094
vn 0.000000 -1.000000 -0.000000
vn 0.000000 1.000000 0.000000
vn 1.000000 0.000000 0.000000
vn -0.000000 0.000000 1.000000
vn -1.000000 -0.000000 -0.000000
vn 0.000000 0.000000 -1.000000
usemtl Material
s off
f 2/1/1 3/2/1 4/3/1
f 8/4/2 7/5/2 6/6/2
f 5/7/3 6/6/3 2/8/3
f 6/6/4 7/5/4 3/9/4
f 3/10/5 7/5/5 8/4/5
f 1/11/6 4/3/6 8/4/6
f 1/11/1 2/1/1 4/3/1
f 5/7/2 8/4/2 6/6/2
f 1/12/3 5/7/3 2/8/3
f 2/13/4 6/6/4 3/9/4
f 4/14/5 3/10/5 8/4/5
f 5/7/6 1/11/6 8/4/6
